<svg width="20" height="24" viewBox="0 0 20 24" fill="none" xmlns="http://www.w3.org/2000/svg">
<path d="M16.2773 12.3165C16.2886 11.4379 16.522 10.5764 16.9557 9.81227C17.3894 9.0481 18.0094 8.40606 18.7579 7.94588C18.2824 7.26677 17.6551 6.70788 16.9258 6.31361C16.1965 5.91935 15.3853 5.70056 14.5567 5.67464C12.789 5.4891 11.0754 6.73236 10.1747 6.73236C9.25648 6.73236 7.86964 5.69306 6.37624 5.72379C5.41026 5.75499 4.46885 6.03589 3.64371 6.53911C2.81858 7.04233 2.13787 7.75071 1.6679 8.59523C-0.367888 12.1199 1.15063 17.2999 3.10074 20.149C4.07643 21.5441 5.21672 23.1025 6.70877 23.0472C8.16884 22.9867 8.71414 22.1162 10.4766 22.1162C12.2226 22.1162 12.7342 23.0472 14.2566 23.0121C15.8233 22.9866 16.8104 21.6108 17.7518 20.2024C18.4529 19.2084 18.9923 18.1097 19.3502 16.9472C18.44 16.5622 17.6632 15.9178 17.1168 15.0943C16.5703 14.2709 16.2784 13.3048 16.2773 12.3165Z" fill="white"/>
<path d="M13.4018 3.8008C14.256 2.77532 14.6769 1.45724 14.575 0.126465C13.2699 0.263539 12.0644 0.887285 11.1986 1.87342C10.7753 2.35518 10.4511 2.91564 10.2445 3.52276C10.0379 4.12989 9.95303 4.77177 9.99468 5.41173C10.6475 5.41845 11.2932 5.27696 11.8834 4.99792C12.4736 4.71888 12.9928 4.30957 13.4018 3.8008Z" fill="white"/>
</svg>
