<svg width="25" height="27" viewBox="0 0 25 27" fill="none" xmlns="http://www.w3.org/2000/svg">
<path d="M11.3218 12.4243L0.674805 23.7243C0.675805 23.7263 0.675805 23.7283 0.676805 23.7303C1.0028 24.9583 2.12381 25.8613 3.45381 25.8613C3.98581 25.8613 4.48481 25.7173 4.91281 25.4653L4.94681 25.4453L16.9308 18.5303L11.3218 12.4243Z" fill="#EA4335"/>
<path d="M22.0931 10.5002L22.0831 10.4932L16.9091 7.49316L11.0801 12.6802L16.9291 18.5282L22.0761 15.5592C22.9781 15.0722 23.5901 14.1212 23.5901 13.0242C23.5901 11.9352 22.9861 10.9882 22.0931 10.5002Z" fill="#FBBC04"/>
<path d="M0.675148 2.27734C0.611148 2.51334 0.577148 2.76034 0.577148 3.01734V22.9843C0.577148 23.2413 0.610148 23.4893 0.675148 23.7243L11.6881 12.7133L0.675148 2.27734Z" fill="#4285F4"/>
<path d="M11.3998 13.0001L16.9108 7.49114L4.93981 0.551137C4.50481 0.290137 3.99781 0.140137 3.45381 0.140137C2.12381 0.140137 1.0018 1.04514 0.674805 2.27414V2.27714L11.3998 13.0001Z" fill="#34A853"/>
</svg>
